<svg t="1584933436610" class="icon" viewBox="0 0 1024 1024" version="1.1" xmlns="http://www.w3.org/2000/svg" p-id="3923" width="200" height="200"><path d="M233.696 703.568a63.2 63.2 0 0 1-42.112-16.992 58.576 58.576 0 0 1-16.992-42.112 34.576 34.576 0 0 1 1.472-11.824 32.656 32.656 0 0 1 3.696-11.088c1.472-3.696 3.696-7.392 5.168-10.336a42.816 42.816 0 0 1 7.392-8.864 59.824 59.824 0 0 1 42.112-16.992 63.2 63.2 0 0 1 42.112 16.992 78.32 78.32 0 0 1 7.392 8.864 45.152 45.152 0 0 1 5.168 10.336 61.744 61.744 0 0 1 2.96 11.088 57.456 57.456 0 0 1 1.472 11.824 59.824 59.824 0 0 1-16.992 42.112 61.568 61.568 0 0 1-42.848 16.992z" p-id="3924"></path><path d="M290.384 992a36.336 36.336 0 1 1 0-72.656l626.64-2.176V356.992l-810.768-6.544 1.488 602.304a36.368 36.368 0 0 1-37.12 36.32 36.368 36.368 0 0 1-37.12-36.32l-1.488-639.36a36.464 36.464 0 0 1 11.2-26.16 38.624 38.624 0 0 1 26.736-10.896l885.008 7.264a37.328 37.328 0 0 1 37.12 36.32v632.112a36.368 36.368 0 0 1-37.12 36.32l-664.496 3.632z" p-id="3925"></path><path d="M952.112 976a36.352 36.352 0 0 1-36.944-36.48v-624L274.624 117.12v184.56a36.944 36.944 0 0 1-73.888 0V68.288a35.792 35.792 0 0 1 14.784-29.184 39.696 39.696 0 0 1 32.512-5.84l714.432 219.568a36.8 36.8 0 0 1 26.592 35.008v651.664A36.352 36.352 0 0 1 952.112 976z" p-id="3926"></path></svg>