<svg t="1584932172002" class="icon" viewBox="0 0 1024 1024" version="1.1" xmlns="http://www.w3.org/2000/svg" p-id="2451" width="200" height="200"><path d="M292.864 942.9504l53.8624 16.8448 16.2304-120.1664-22.0672-7.5776-48.0256 110.8992zM295.2192 804.7616l-98.3552 70.1952 37.4272 42.24 75.8784-94.5664-14.9504-17.8688zM394.24 831.6416l33.4336 116.1728 52.2752-21.248-63.8464-103.0656-21.8624 8.1408z" fill="#2c2c2c" p-id="2452"></path><path d="M823.9104 445.696l-144.8448 39.5264c-49.5616 104.7552-168.96 138.8032-251.8016 58.5216l-11.8784 130.1504L286.72 671.744l-4.608-180.9408 491.52-134.144-7.424-41.8304-239.9232 65.4848-25.9584-95.1808s77.2096-56.9344 55.1424-104.8064-71.2704-66.56-128-53.248c-105.6256 24.3712-70.9632 175.7184 25.6 159.0784L491.52 389.8368 194.56 471.04l9.4208 268.7488 269.3632 0.3072 1.28-109.1072c109.2096 40.96 202.5984-5.9392 261.888-103.3728L829.44 510.0032zM488.96 246.3744c-34.4576 24.3712-76.3392-8.3456-82.8416-35.0208s15.36-33.3824 39.936-40.0384c48.7424-13.312 77.4144 50.688 42.9056 75.0592z" fill="#2c2c2c" p-id="2453"></path><path d="M687.616 64.2048l-115.0464 88.2688 11.2128 40.96 153.6 3.7376z m-76.8 99.8912l61.44-39.168 11.264 25.6zM334.0288 213.0944l-133.12 2.6624 37.7344 138.24 104.8576-106.0864zM261.4784 276.48l-10.24-25.6 51.8144-8.2944z" fill="#2c2c2c" p-id="2454"></path></svg>